<svg width="25" height="25" viewBox="0 0 25 25" fill="none" xmlns="http://www.w3.org/2000/svg">
    <g clip-path="url(#oxlrbz1tba)" fill="#502314">
        <path d="m4.61 14.063.937 1.874c.156.313.39.47.703.47h13.281c.313 0 .547-.157.703-.47l.938-1.874H4.609zM3.125 13.281H22.656c.469 0 .782-.312.782-.781 0-.469-.313-.781-.782-.781h-.781c-.156-4.14-3.203-7.578-7.11-8.438 0-.156.079-.312.079-.547 0-1.093-.86-1.953-1.953-1.953-1.094 0-1.954.86-1.954 1.953 0 .235.079.391.079.547-3.907.86-6.875 4.297-7.11 8.438h-.781c-.469 0-.781.312-.781.781 0 .469.312.781.781.781zM19.219 17.422c-.078-.156-.313-.235-.469-.235-.313 0-.547 0-.86.079l-.859 1.172c-.86 1.171-2.265 1.875-3.75 1.875h-2.343c-.47 0-.782-.313-.782-.782 0-.468.313-.781.781-.781h2.735c.234-.234.39-.625.39-1.016v-.078c0-.312-.234-.468-.546-.468H10.39c-1.875 0-3.36.859-4.22 2.187l-1.405 2.188a.667.667 0 0 0 0 .546l1.562 2.578c.078.157.156.235.313.235h.078c.078 0 .234 0 .312-.078a11.872 11.872 0 0 1 6.64-2.032c1.72 0 3.282-.937 4.063-2.421l1.407-2.5c.156-.078.156-.313.078-.47z"/>
    </g>
    <defs>
        <clipPath id="oxlrbz1tba">
            <path fill="#fff" d="M0 0h25v25H0z"/>
        </clipPath>
    </defs>
</svg>
