<svg width="25" height="25" viewBox="0 0 25 25" fill="none" xmlns="http://www.w3.org/2000/svg">
    <path fill-rule="evenodd" clip-rule="evenodd" d="M4 20.375V4.625c0-.696.299-1.364.83-1.856A2.951 2.951 0 0 1 6.833 2h11.334c.751 0 1.472.277 2.003.769.531.492.83 1.16.83 1.856v14.438c0 .348-.15.681-.415.928a1.476 1.476 0 0 1-1.002.384H5.417c0 .348.149.682.415.928.265.246.626.384 1.001.384h13.459c.188 0 .368.07.5.193.133.123.208.29.208.464 0 .174-.075.34-.207.464a.738.738 0 0 1-.501.192H6.833a2.952 2.952 0 0 1-2.003-.769A2.531 2.531 0 0 1 4 20.375zM14.625 9.219c0 .522-.224 1.023-.622 1.392-.399.37-.94.576-1.503.576a2.214 2.214 0 0 1-1.503-.576 1.898 1.898 0 0 1-.622-1.392c0-.522.224-1.023.622-1.392.399-.37.94-.577 1.503-.577.564 0 1.104.207 1.503.577.398.369.622.87.622 1.392zM8.25 13.484v.329c0 .696.299 1.363.83 1.856a2.952 2.952 0 0 0 2.003.768h2.834c.751 0 1.472-.276 2.003-.768.531-.493.83-1.16.83-1.857v-.328a.949.949 0 0 0-.311-.696c-.2-.184-.47-.288-.752-.288H9.314c-.282 0-.553.104-.752.288a.95.95 0 0 0-.311.696z" fill="#502314"/>
</svg>
