<svg width="25" height="25" viewBox="0 0 25 25" fill="none" xmlns="http://www.w3.org/2000/svg">
    <path d="M3.364 11a1.362 1.362 0 0 1-1.336-1.627C2.277 8.39 4.194 2 12.5 2s10.223 6.39 10.472 7.373A1.362 1.362 0 0 1 21.636 11H3.364zM7.25 6.5a.75.75 0 1 0-1.5 0 .75.75 0 0 0 1.5 0zm11.25.75a.75.75 0 1 0 0-1.5.75.75 0 0 0 0 1.5zM13.25 5a.75.75 0 1 0-1.5 0 .75.75 0 0 0 1.5 0zm-12 9.75A2.25 2.25 0 0 1 3.5 12.5h18a2.25 2.25 0 0 1 0 4.5h-18a2.25 2.25 0 0 1-2.25-2.25zm.75 4.5c0-.413.337-.75.75-.75h19.5c.413 0 .75.337.75.75V20c0 1.655-1.345 3-3 3H5c-1.655 0-3-1.345-3-3v-.75z" fill="#502314"/>
</svg>
