<svg width="22" height="19" viewBox="0 0 22 19" fill="none" xmlns="http://www.w3.org/2000/svg">
    <path d="M12.315 9.997c-.005.048-.046.113-.144.102l-.035-.005c-.04-.006-.052-.027-.052-.054l.023-.14c.006-.027.023-.043.064-.038l.034.005c.099.011.116.076.11.13zm-6.27-.167.04.005c.11.01.15-.06.162-.113.012-.06-.011-.13-.121-.14l-.04-.006c-.041-.005-.059.011-.065.038l-.023.156c-.006.033.006.054.047.06zm2.623-.389-.035-.005c-.04-.005-.058.01-.064.038l-.023.14c-.006.027.011.049.052.054l.035.005c.098.011.133-.054.145-.102.005-.054-.012-.119-.11-.13zm3.358 4.75c-.006.053-.058.075-.099.07-.04-.006-.08-.038-.075-.092.006-.049.058-.075.098-.07.041.005.082.043.076.091zm-.04-.027c0-.017-.012-.033-.041-.038l-.035-.006c-.006 0-.012.006-.012.011l-.011.086c0 .006.006.011.011.011.006 0 .012-.005.012-.01l.006-.027h.006l.028.037c0 .006.006.006.012.006s.012-.006.012-.011v-.006l-.024-.027c.024.006.035-.01.035-.026zm-.041-.017h-.018l-.005.027h.017c.011 0 .023-.005.023-.01 0-.011-.006-.017-.017-.017zm2.542-2.097c-.162 2.297-.18 5.24-.174 6.464 0 .302-.29.528-.614.48L3.462 17.586c-.255-.044-.405-.248-.428-.491-.128-1.32.144-5.256.185-6.053.064-1.3.863-4.723 1.39-6.253.26-.75.602-2.723.596-3.289 0-.264.185-.388.359-.501 0 0 11.337.259 11.424.323.087.065.544.2.643.534.156.555-.191.722-.313.625-.145-.113-.77-.34-.834.33-.064.668-.359 1.88-.533 2.263-.173.383-1.25 3.995-1.464 6.975zm-8.68-1.94.324.038c.301.037.516-.124.55-.35.03-.184-.08-.281-.104-.303-.011-.01-.023-.021-.017-.027 0-.01.011-.01.023-.021a.322.322 0 0 0 .122-.21c.034-.243-.128-.4-.417-.432l-.272-.032c-.18-.021-.284.06-.301.189l-.14.895c-.023.129.053.231.232.253zm-.214 2.113c.237.027.394-.113.428-.313l.047-.29c.006-.028.017-.044.046-.038.035.005.04.037.046.053.035.119.15.372.272.534a.492.492 0 0 0 .319.194c.214.027.417-.118.44-.296.017-.108-.023-.2-.11-.308a3.596 3.596 0 0 1-.278-.404c-.017-.032-.017-.048-.012-.06.006-.02.018-.037.053-.053.07-.043.249-.156.353-.27a.438.438 0 0 0 .133-.231c.029-.178-.133-.335-.33-.362a.406.406 0 0 0-.353.14c-.133.14-.284.308-.377.367-.023.016-.034.016-.052.016-.029-.005-.034-.021-.034-.048l.028-.205c.03-.2-.075-.377-.318-.404-.243-.027-.394.113-.428.312l-.192 1.25c-.028.211.076.389.319.416zm1.656-2.404.104-.663c.018-.124-.046-.232-.197-.248-.144-.016-.243.07-.26.194l-.105.684c-.04.248.128.47.498.513.371.043.597-.13.637-.378l.105-.684c.017-.124-.047-.232-.191-.248-.145-.016-.244.07-.261.194l-.104.663c-.006.048-.047.102-.133.091-.087-.01-.099-.07-.093-.118zm2.438.086c.034-.22.208-.286.33-.27.15.017.168.092.272.103a.203.203 0 0 0 .231-.156c.012-.07-.017-.124-.063-.167a.726.726 0 0 0-.417-.162c-.353-.043-.73.124-.805.604-.07.458.243.716.579.754.359.043.614-.135.66-.431.029-.189-.081-.334-.336-.367l-.075-.01c-.133-.017-.249.027-.266.156-.018.113.086.183.168.194.04.005.069.022.063.049-.006.037-.058.053-.11.048-.168-.021-.266-.146-.231-.345zm-.66.722c-.238-.027-.394.114-.429.318l-.191 1.256c-.029.2.075.367.307.4.237.026.388-.114.417-.313l.07-.437c.005-.038.022-.054.046-.049.017 0 .028.017.04.044l.232.587c.087.227.214.286.353.308.237.026.394-.114.428-.319l.191-1.256c.03-.199-.075-.366-.306-.398-.238-.027-.388.113-.417.312l-.07.437c-.006.038-.023.054-.046.048-.018 0-.03-.016-.04-.043l-.232-.587c-.093-.227-.215-.286-.354-.308zM8.73 9.102l-.26-.032c-.18-.022-.284.059-.301.188l-.14.906c-.017.124.047.232.192.248.144.016.243-.07.26-.194l.035-.216c.006-.027.017-.038.04-.032.03.005.035.016.035.043.006.108.04.253.087.334.064.103.133.14.203.146.116.016.231-.06.249-.162.011-.07-.012-.124-.047-.178-.052-.086-.104-.162-.121-.232-.006-.016 0-.032.023-.043a.392.392 0 0 0 .203-.307c.046-.259-.168-.431-.458-.47zm-.735 1.401c-.255-.032-.423.124-.452.335L7.36 12.04c-.035.215.081.399.336.431.255.032.422-.124.451-.334l.186-1.202c.029-.21-.081-.4-.336-.432zm3.954 3.58c-.063-.006-.121.032-.127.086-.011.06.035.108.099.113.063.005.121-.027.127-.086a.105.105 0 0 0-.098-.113zm.151-.863-6.728-.808c-.133-.017-.203.032-.214.134-.03.173.115.442.446.663.55.372 1.551.577 2.958.75 1.407.167 2.438.205 3.075-.022.382-.135.602-.356.625-.534.023-.107-.029-.172-.162-.183zm-1.019-3.369.006-.032c.006-.027.023-.043.064-.038l.202.027c.128.016.238-.038.255-.162.017-.118-.07-.2-.197-.215l-.428-.054c-.18-.022-.284.06-.302.188l-.139.895c-.017.124.053.232.232.254l.429.054c.127.016.237-.038.254-.162.018-.119-.07-.2-.197-.216l-.202-.027c-.04-.005-.052-.027-.052-.054l.005-.037c.006-.027.024-.043.064-.038l.157.021c.11.011.202-.037.22-.14.017-.102-.064-.172-.174-.188l-.156-.022c-.035-.005-.047-.027-.041-.054zm1.309 1.348c-.128-.108-.325-.2-.62-.237-.533-.065-1.094.172-1.204.867-.104.663.37 1.04.88 1.1.538.065.92-.188.99-.62.04-.275-.122-.485-.504-.528l-.11-.01c-.203-.022-.37.042-.4.22-.023.167.134.264.255.28.064.006.105.027.099.07-.006.055-.087.081-.162.07-.26-.032-.411-.21-.365-.5a.433.433 0 0 1 .492-.389c.226.027.25.135.405.151.186.022.325-.097.348-.232a.277.277 0 0 0-.104-.242zm-.122-1.671-.26-.033c-.18-.021-.284.06-.302.19l-.139.905c-.017.124.047.232.191.248.145.016.244-.07.261-.194l.035-.216c.005-.027.017-.038.04-.032.03.005.035.016.035.043.006.107.04.253.087.334.064.102.133.14.202.146.116.016.232-.06.25-.162.011-.07-.012-.124-.047-.178a.793.793 0 0 1-.121-.232c-.006-.016 0-.032.023-.043a.392.392 0 0 0 .202-.307c.047-.259-.168-.432-.457-.47zM9.64 6.962c-2.46-.297-3.734.722-3.833 1.37-.017.107.035.177.168.193l6.728.809c.133.016.203-.038.22-.146.093-.652-.85-1.935-3.283-2.226zM6.12 9.334l.029.005c.098.01.139-.054.145-.102.005-.054-.012-.119-.11-.13l-.03-.005c-.04-.005-.057.01-.063.038l-.023.14c0 .027.017.048.052.054zm12.397-2.782c-.116-.792-.672-2.328-.788-2.652-.116-.323-.284-.647-.284-.647-.168-.075-.249.006-.272.108-.023.102-.353 1.526-.613 2.318-.18.544-.765 2.814-.938 3.66-.174.846-.481 3.035-.597 4.366-.093 1.09-.035 3.752-.011 4.685.005.134.173.204.283.118l3.463-2.625a.587.587 0 0 0 .237-.474c-.011-.663-.029-2.356 0-3.99.04-2.08-.365-4.074-.48-4.867z" fill="#502314"/>
</svg>
