<svg width="24" height="24" viewBox="0 0 24 24" fill="none" xmlns="http://www.w3.org/2000/svg">
    <g clip-path="url(#a0i2s202aa)">
        <path d="M2.934 9.51c-.186-.656.695-1.189 1.49-.903l3.26 1.172c.496.178 1.089.04 1.367-.321l1.94-2.514c.415-.537 1.437-.53 1.839.013l1.881 2.538c.264.357.837.507 1.333.349l3.575-1.139c.794-.253 1.632.281 1.446.921l-1.588 7.194c-.107.37-.538.634-1.036.634H5.555c-.5 0-.931-.265-1.037-.637L2.934 9.51z" fill="#502314"/>
        <g clip-path="url(#1d1vk745nb)">
            <path d="M14 13.06h-1.666v1.667a.334.334 0 0 1-.667 0V13.06H10a.334.334 0 0 1-.333-.333c0-.183.15-.333.333-.333h1.667v-1.667c0-.183.15-.333.333-.333.184 0 .334.15.334.333v1.667H14c.184 0 .334.15.334.333 0 .183-.15.333-.334.333z" fill="#F5EBDC"/>
        </g>
        <path d="M21.285 0h-1.838v1.735h1.838c.54 0 .98.44.98.98v1.838H24V2.714A2.718 2.718 0 0 0 21.285 0zM1.735 2.714c0-.54.44-.979.98-.979h1.838V0H2.714A2.718 2.718 0 0 0 0 2.714v1.84h1.735v-1.84zm20.53 18.571c0 .54-.44.98-.98.98h-1.838V24h1.838A2.718 2.718 0 0 0 24 21.285v-1.838h-1.735v1.838zm-20.53 0v-1.838H0v1.838A2.718 2.718 0 0 0 2.714 24h1.84v-1.735h-1.84a.98.98 0 0 1-.979-.98z" fill="#502314"/>
    </g>
    <defs>
        <clipPath id="a0i2s202aa">
            <path fill="#fff" d="M0 0h24v24H0z"/>
        </clipPath>
        <clipPath id="1d1vk745nb">
            <path fill="#fff" transform="translate(8 8.727)" d="M0 0h8v8H0z"/>
        </clipPath>
    </defs>
</svg>
