<svg width="24" height="24" viewBox="0 0 24 24" fill="none" xmlns="http://www.w3.org/2000/svg">
    <path fill-rule="evenodd" clip-rule="evenodd" d="M21.172 9.286a1.46 1.46 0 0 0-.581-1.151l-7.719-5.838a1.47 1.47 0 0 0-1.786.01l-7.76 6.02a1.476 1.476 0 0 0-.57 1.142c-.034 1.859-.312 10.252-.246 11.059.087 1.08.809 1.327 1.44 1.327 2.5 0 3.848.044 5.267.085V16.7l-.002-.018.002-.018v-.001a2.783 2.783 0 0 1 5.565 0l.002.02-.002.017V22c1.47-.016 3.657-.054 4.334-.113.668-.056 1.995.06 2.29-.758.093-.25.094-.527.094-.796 0-1.55-.303-8.74-.328-11.047z" fill="#502314"/>
</svg>
