<svg width="50" height="50" viewBox="0 0 50 50" fill="none" xmlns="http://www.w3.org/2000/svg">
    <rect width="50" height="50" rx="10" fill="#fff"/>
    <g clip-path="url(#viqqwszi8a)">
        <path d="M37.85 39.835c-2.524 1.425-6.855 1.832-12.846 1.832-5.99 0-10.321-.407-12.846-1.832-1.515-.853-2.282-2.017-2.282-2.85 0-.476.253-.747.815-.747h28.626c.563 0 .815.271.815.746 0 .834-.766 1.998-2.281 2.85zm1.467-22.106H10.69c-.562 0-.815-.29-.815-.814 0-3.103 4.67-8.581 15.128-8.581 10.361 0 15.129 5.478 15.129 8.58 0 .524-.253.815-.816.815z" fill="#FF8732"/>
        <path d="M15.973 30.529a.49.49 0 0 1-.096-.262c0-.107.058-.184.174-.291.272-.252.942-.882 1.311-1.454.281-.437.398-.834.398-1.163 0-.844-.767-1.504-1.602-1.504-.534 0-1.039.301-1.379.854-.456.736-1 1.59-1.35 1.93-.087.087-.135.106-.203.106-.117 0-.165-.078-.165-.203v-.97c0-.95-.563-1.716-1.583-1.716-1.03 0-1.583.765-1.583 1.716v5.973c0 .95.553 1.716 1.583 1.716 1.02 0 1.583-.766 1.583-1.717v-1.376c0-.117.048-.204.165-.204.155 0 .194.156.233.233.223.533.874 1.667 1.476 2.336.408.446.913.728 1.447.728.903 0 1.66-.786 1.66-1.63 0-.523-.223-.91-.65-1.376-.544-.592-1.185-1.368-1.418-1.727zM28.082 25.302c1.525 0 2.486-.97 2.486-2.385 0-.902-.544-1.522-1.631-1.522h-.31c-.574 0-1.02.271-1.02.882 0 .543.476.805.835.805.184 0 .301.058.301.194 0 .174-.203.29-.437.29-.728 0-1.223-.513-1.223-1.473 0-1.067.68-1.454 1.204-1.454.64 0 .748.33 1.194.33a.867.867 0 0 0 .864-.873.929.929 0 0 0-.368-.756c-.408-.3-.981-.524-1.836-.524-1.505 0-2.971.99-2.971 3.278 0 2.19 1.466 3.208 2.912 3.208zM11.012 25.243h1.37c1.29 0 2.077-.863 2.077-1.939 0-.863-.515-1.26-.63-1.357-.05-.04-.098-.078-.098-.117 0-.048.03-.067.078-.126a1.56 1.56 0 0 0 .369-1.047c0-1.163-.787-1.784-2.01-1.784h-1.156c-.767 0-1.136.446-1.136 1.047v4.276c0 .601.369 1.047 1.136 1.047zm.573-4.702c0-.126.078-.223.243-.223h.126c.417 0 .544.29.544.543 0 .232-.126.562-.544.562h-.126c-.165 0-.243-.096-.243-.223v-.659zm0 2.269c0-.126.078-.223.243-.223h.174c.467 0 .602.31.602.591 0 .253-.136.611-.602.611h-.174c-.165 0-.243-.097-.243-.223v-.756zM36.365 25.293c.622 0 .961-.466.961-1.047v-1.028c0-.126.059-.184.156-.184.116 0 .155.068.174.184.088.494.32 1.163.583 1.503.33.437.64.573.951.573.505 0 .942-.398.942-.893 0-.33-.136-.572-.31-.795-.33-.416-.534-.688-.66-1.027-.03-.078-.01-.146.077-.213.301-.233.651-.747.651-1.561 0-1.232-1.02-1.93-2.253-1.93H36.54c-.767 0-1.136.446-1.136 1.047v4.325c0 .58.34 1.046.961 1.046zm.855-4.586c0-.126.077-.223.242-.223h.136c.408 0 .535.291.535.543 0 .243-.127.563-.535.563h-.136c-.165 0-.242-.097-.242-.224v-.659zM20.401 25.855c-1.087 0-1.68.815-1.68 1.833v5.74c0 1.018.593 1.832 1.68 1.832 1.088 0 1.68-.814 1.68-1.832v-5.74c0-1.018-.592-1.832-1.68-1.832zM37.666 29.587h-.475c-.855 0-1.515.397-1.515 1.27 0 .795.718 1.173 1.253 1.173.262 0 .446.078.446.281 0 .252-.31.417-.64.417-1.098 0-1.846-.747-1.846-2.133 0-1.542 1.02-2.104 1.806-2.104.962 0 1.117.485 1.787.485.777 0 1.3-.63 1.3-1.27a1.32 1.32 0 0 0-.552-1.096c-.593-.436-1.486-.756-2.748-.756-2.263 0-4.467 1.425-4.467 4.74 0 3.171 2.204 4.654 4.379 4.654 2.282 0 3.729-1.405 3.729-3.46 0-1.3-.815-2.201-2.457-2.201zM33.996 25.244c.544 0 .971-.32.971-.901 0-.573-.427-.893-.971-.893h-.874c-.165 0-.243-.096-.243-.223v-.184c0-.126.078-.223.243-.223h.67c.466 0 .835-.281.835-.776 0-.494-.369-.776-.835-.776h-.67c-.165 0-.243-.096-.243-.223v-.155c0-.126.078-.223.243-.223h.874c.544 0 .971-.32.971-.902 0-.572-.427-.892-.971-.892H32.16c-.767 0-1.136.446-1.136 1.047v4.276c0 .6.369 1.047 1.136 1.047h1.835v.001zM17.314 25.291c1.573 0 2.408-.94 2.408-2.123v-3.267c0-.582-.34-1.047-.961-1.047-.622 0-.962.465-.962 1.047v3.16c0 .233-.136.505-.485.505-.35 0-.466-.272-.466-.505v-3.16c0-.582-.35-1.047-.972-1.047-.621 0-.961.465-.961 1.047v3.267c0 1.183.826 2.123 2.399 2.123zM24.13 25.291c.506 0 .943-.397.943-.892 0-.33-.136-.572-.31-.795-.282-.368-.535-.688-.661-1.027-.03-.078-.01-.146.078-.214.3-.232.65-.746.65-1.56 0-1.232-1.02-1.93-2.252-1.93H21.48c-.767 0-1.136.446-1.136 1.047v4.325c0 .581.34 1.047.961 1.047.622 0 .961-.466.961-1.047v-1.028c0-.126.059-.184.156-.184.116 0 .155.068.174.184.088.495.32 1.164.583 1.503.33.436.64.572.952.572zm-1.592-3.703h-.136c-.165 0-.243-.097-.243-.223v-.66c0-.125.078-.222.243-.222h.136c.408 0 .534.29.534.543 0 .242-.126.562-.534.562zM29.714 25.855c-1 0-1.544.747-1.544 1.688v2.094c0 .174-.059.252-.165.252-.078 0-.136-.048-.204-.184l-1.35-2.618c-.514-.999-1.048-1.232-1.66-1.232-1.02 0-1.583.766-1.583 1.726v5.993c0 .94.544 1.687 1.544 1.687s1.544-.747 1.544-1.687V31.48c0-.175.058-.253.165-.253.078 0 .136.049.204.184l1.35 2.618c.514 1 1.067 1.232 1.66 1.232 1.02 0 1.583-.766 1.583-1.726v-5.992c0-.941-.544-1.688-1.544-1.688zM38.756 40.842c0-.26.202-.479.48-.479.276 0 .479.218.479.479 0 .28-.203.482-.48.482a.466.466 0 0 1-.48-.482zm.854 0c0-.241-.189-.38-.375-.38a.372.372 0 0 0-.375.38c0 .25.19.384.375.384a.368.368 0 0 0 .375-.384zm-.541.205v-.406c0-.026.023-.052.049-.052h.137c.107 0 .182.065.182.153 0 .074-.042.14-.14.156l.108.12c.01.01.016.023.016.033 0 .029-.02.048-.05.048a.05.05 0 0 1-.041-.022l-.144-.17h-.016v.14c0 .026-.023.05-.052.05a.05.05 0 0 1-.049-.05zm.173-.231c.059 0 .091-.03.091-.068 0-.042-.029-.065-.081-.065h-.081v.133h.071z" fill="#D62300"/>
    </g>
    <defs>
        <clipPath id="viqqwszi8a">
            <path fill="#fff" transform="translate(8.333 8.334)" d="M0 0h33.333v33.333H0z"/>
        </clipPath>
    </defs>
</svg>
