<svg width="50" height="50" viewBox="0 0 50 50" fill="none" xmlns="http://www.w3.org/2000/svg">
    <rect width="50" height="50" rx="10" fill="#fff"/>
    <circle cx="25" cy="25" r="20" fill="#502314"/>
    <path d="M26.143 34c-1.345 0-2.69 0-4.303-.12-1.479-.122-3.63-.242-4.437-1.088-.268-.242-.403-.604-.403-1.087.269-2.416.269-4.35.269-6.403v-.725c0-1.208 0-2.416-.134-3.503 0-1.087-.135-2.296-.135-3.504 0-.241 0-.483.134-.724.538-.725 1.748-.846 2.958-.846h8.875c1.075 0 1.747.12 2.285.483.807.604 1.21 1.691 1.48 3.745.133 1.57.268 3.02.268 4.47 0 2.416-.135 4.228-.403 6.523 0 .484-.135.967-.135 1.57 0 .726-.672 1.088-1.613 1.209h-4.706zm3.361-4.228c-.403 0-.941.241-1.075.604-.135.12-.135.483.269.966.134.121.403.242.672.242.538 0 .94-.242 1.075-.604v-.242a.877.877 0 0 0-.268-.604c-.135-.241-.404-.362-.673-.362zm-9.143-3.624c-.403 0-.672.241-.672.604-.134.362.134.725.538.845.403.121.807.242 1.21.242.538 0 .941-.12 1.479-.242.269.121.538.121.941.121h.538c.403 0 .672-.12 1.076-.12h.537c.404.12.942.12 1.48.12.672 0 1.21 0 1.882-.12h.806c.538 0 .807-.363.807-.726 0-.362-.269-.724-.672-.724h-.807c-.672 0-1.21.12-1.882.12h-.135c-.268 0-.672 0-.94-.12-.404 0-.673-.121-1.076-.121h-.807c-.269 0-.404.12-.672.12h-.538c-.135 0-.27-.12-.404-.12h-.134c-.269 0-.403.12-.538.241-.134.121-.269.121-.403.121h-.27c-.268 0-.537 0-.806-.12-.403 0-.538-.121-.538-.121zm1.345-2.296h1.21c.672 0 1.21.121 1.882.242.27 0 .538.12.807.12h.538c.269 0 .538 0 .807-.12.134 0 .268-.12.403-.12.134-.122.269-.122.403-.122.135 0 .27 0 .538.121.135 0 .269.121.404.121h.537c.27 0 .538 0 .807-.12.403 0 .672-.363.538-.726 0-.362-.403-.725-.807-.725h-.538c-.269 0-.403 0-.672-.12h-.269c-.269 0-.403-.121-.672-.121h-.135c-.268 0-.537.12-.806.241l-.135.121c-.134.121-.269.121-.403.121-.135 0-.404 0-.538-.12a18.856 18.856 0 0 0-3.765-.363h-1.344c-.538 0-.807.483-.807.846 0 .362.269.604.672.604h.135c.269.12.806.12 1.21.12zm4.168-3.503c.134 0 .403 0 .538.12.134 0 .403.122.538.122h1.21c.538 0 .94 0 1.479-.121.538-.121.806-.483.672-.846 0-.362-.269-.604-.672-.604h-.135c-.538 0-.941.12-1.479.12-.403 0-.806 0-1.21-.12-.134 0-.269 0-.403-.12-.27 0-.538-.121-.807-.121s-.403 0-.538.12h-.538c-.268 0-.537-.12-.672-.12-.269-.121-.672-.121-1.075-.121h-.404c-.134 0-.269 0-.403.12-.135 0-.27.121-.404.121H20.9c-.269 0-.538 0-.941.121-.403.12-.672.363-.538.725 0 .362.27.725.807.725H21.57c.27 0 .404 0 .673-.121.134 0 .269 0 .269-.12h.268c.27 0 .538.12.807.12.27.12.672.12.941.12.27 0 .404 0 .538-.12h.807z" fill="#F5EBDC"/>
</svg>
