<svg width="24" height="24" viewBox="0 0 24 24" fill="none" xmlns="http://www.w3.org/2000/svg">
    <path d="M21.941 22.325a120.904 120.904 0 0 0-3.034-7.942l-.142.107c-.487.365-1 .694-1.536.983a11.994 11.994 0 0 1-4.636 1.425c.899 1.99 1.782 3.987 2.846 6.576.073.184.246.526.246.526l1.978-2.842a.65.65 0 0 1 .768-.127l3.664 1.851-.154-.557zM7.512 16.138a9.66 9.66 0 0 1-1.828-1.317 8.208 8.208 0 0 1-.557-.538 120.811 120.811 0 0 0-3.072 8.042l-.15.557 3.898-1.962a.45.45 0 0 1 .438.061l2.304 2.489a.614.614 0 0 0 .092-.13c1.083-2.65 1.92-4.544 2.735-6.391a11.333 11.333 0 0 1-1.648-.127 6.623 6.623 0 0 1-2.212-.684z" fill="#D62300"/>
    <path fill-rule="evenodd" clip-rule="evenodd" d="M19.843 7.965a7.968 7.968 0 1 0-15.936.007 7.968 7.968 0 0 0 15.936-.007zM8.62 6.347c-.375-.187-.79.162-.702.59l.746 3.646c.05.243.254.417.49.417h6.074a.507.507 0 0 0 .488-.414l.749-3.573c.088-.418-.307-.767-.682-.602l-1.685.744a.488.488 0 0 1-.628-.228l-.887-1.658a.487.487 0 0 0-.867-.008L10.8 6.903a.487.487 0 0 1-.645.21L8.62 6.347z" fill="#D62300"/>
</svg>
