<svg width="24" height="24" viewBox="0 0 24 24" fill="none" xmlns="http://www.w3.org/2000/svg">
    <path d="M13.286 22c-1.513 0-3.025 0-4.84-.134-1.664-.134-4.085-.269-4.992-1.208C3.15 20.389 3 19.987 3 19.45c.303-2.685.303-4.832.303-7.114v-.806c0-1.342 0-2.684-.152-3.892C3.151 6.43 3 5.088 3 3.745c0-.268 0-.537.151-.805C3.756 2.134 5.118 2 6.48 2h9.983c1.21 0 1.967.134 2.572.537.907.671 1.361 1.88 1.664 4.161.15 1.745.302 3.356.302 4.966 0 2.685-.151 4.698-.454 7.249 0 .537-.151 1.074-.151 1.745 0 .805-.756 1.208-1.815 1.342h-5.294zm3.781-4.698c-.454 0-1.059.268-1.21.671-.151.134-.151.537.303 1.074.15.134.453.268.756.268.605 0 1.059-.268 1.21-.67v-.27a.969.969 0 0 0-.303-.67c-.15-.269-.453-.403-.756-.403zM6.782 13.275c-.454 0-.757.269-.757.671-.151.403.151.806.605.94.454.134.908.268 1.362.268.605 0 1.058-.134 1.663-.268.303.134.606.134 1.06.134h.604c.454 0 .757-.134 1.21-.134h.605c.454.134 1.06.134 1.664.134.757 0 1.362 0 2.118-.134h.907c.606 0 .908-.403.908-.805 0-.403-.302-.806-.756-.806h-.908c-.756 0-1.361.134-2.117.134h-.152c-.302 0-.756 0-1.059-.134-.453 0-.756-.134-1.21-.134h-.907c-.303 0-.454.134-.756.134h-.606c-.15 0-.302-.134-.453-.134h-.152c-.302 0-.453.134-.605.268-.15.135-.302.135-.453.135h-.303c-.302 0-.605 0-.907-.135-.454 0-.605-.134-.605-.134zm1.512-2.55h1.361c.757 0 1.362.134 2.118.268.303 0 .605.134.908.134h.605c.302 0 .605 0 .907-.134.152 0 .303-.134.454-.134.151-.134.303-.134.454-.134.151 0 .302 0 .605.134.151 0 .302.134.454.134h.605c.302 0 .605 0 .907-.134.454 0 .757-.403.605-.805 0-.403-.454-.806-.907-.806h-.605c-.303 0-.454 0-.757-.134h-.302c-.303 0-.454-.134-.756-.134h-.152c-.302 0-.605.134-.907.268l-.152.135c-.15.134-.302.134-.453.134-.152 0-.454 0-.605-.134a21.47 21.47 0 0 0-4.236-.403H6.933c-.605 0-.908.537-.908.94 0 .402.303.67.757.67h.15c.303.135.908.135 1.362.135zm4.69-3.893c.15 0 .453 0 .604.134.152 0 .454.135.605.135h1.362c.605 0 1.058 0 1.663-.135.605-.134.908-.536.757-.94 0-.402-.303-.67-.757-.67h-.15c-.606 0-1.06.134-1.665.134-.453 0-.907 0-1.361-.134-.151 0-.303 0-.454-.135-.302 0-.605-.134-.907-.134-.303 0-.454 0-.605.134h-.605c-.303 0-.605-.134-.757-.134-.302-.134-.756-.134-1.21-.134H9.05c-.15 0-.302 0-.453.134-.152 0-.303.134-.454.134h-.756c-.303 0-.605 0-1.06.135-.453.134-.756.402-.604.805 0 .403.302.805.907.805H8.142c.303 0 .455 0 .757-.134.151 0 .303 0 .303-.134h.302c.303 0 .605.134.908.134.302.134.756.134 1.059.134.302 0 .453 0 .605-.134h.907z" fill="#502314"/>
</svg>
