<svg width="80" height="80" viewBox="0 0 80 80" fill="none" xmlns="http://www.w3.org/2000/svg">
    <path d="M70.843 75.602C64.784 79.022 54.39 80 40.012 80s-24.773-.978-30.831-4.398c-3.637-2.047-5.477-4.84-5.477-6.841 0-1.14.606-1.792 1.957-1.792h68.7c1.352 0 1.958.652 1.958 1.792.001 2.002-1.84 4.794-5.476 6.841zm3.519-53.054H5.66c-1.35 0-1.957-.698-1.957-1.954C3.704 13.147 14.914 0 40.012 0 64.878 0 76.32 13.147 76.32 20.594c0 1.256-.606 1.954-1.958 1.954z" fill="#FF8732"/>
    <path d="M18.338 53.264c-.21-.326-.232-.536-.232-.628 0-.256.14-.442.419-.698.652-.606 2.26-2.118 3.146-3.49.675-1.047.955-2.002.955-2.792 0-2.024-1.84-3.607-3.845-3.607-1.282 0-2.493.721-3.309 2.048-1.095 1.768-2.4 3.815-3.239 4.63-.21.21-.326.257-.489.257-.28 0-.396-.186-.396-.489v-2.327c0-2.28-1.352-4.12-3.799-4.12-2.47 0-3.799 1.839-3.799 4.12v14.334c0 2.28 1.328 4.12 3.799 4.12 2.447 0 3.799-1.838 3.799-4.12V57.2c0-.28.116-.489.396-.489.373 0 .467.372.56.558.536 1.28 2.096 4.002 3.542 5.608.98 1.07 2.19 1.746 3.473 1.746 2.167 0 3.985-1.886 3.985-3.91 0-1.256-.536-2.187-1.562-3.304-1.305-1.422-2.844-3.284-3.404-4.144zM47.4 40.722c3.659 0 5.966-2.328 5.966-5.724 0-2.164-1.306-3.653-3.916-3.653h-.745c-1.375 0-2.447.651-2.447 2.117 0 1.304 1.142 1.932 2.005 1.932.442 0 .722.14.722.465 0 .419-.489.698-1.049.698-1.748 0-2.936-1.233-2.936-3.537 0-2.56 1.632-3.49 2.89-3.49 1.538 0 1.794.792 2.866.792 1.236 0 2.075-1.024 2.075-2.094a2.23 2.23 0 0 0-.886-1.816c-.979-.721-2.353-1.256-4.404-1.256-3.613 0-7.132 2.374-7.132 7.865 0 5.257 3.518 7.7 6.99 7.7zM6.43 40.581h3.286c3.1 0 4.987-2.071 4.987-4.653 0-2.072-1.236-3.026-1.514-3.258-.117-.094-.233-.186-.233-.28 0-.116.07-.162.186-.302.443-.512.886-1.326.886-2.514 0-2.791-1.889-4.281-4.825-4.281H6.43c-1.841 0-2.726 1.071-2.726 2.514v10.26c0 1.444.885 2.514 2.726 2.514zm1.375-11.285c0-.302.187-.536.583-.536h.303c1.001 0 1.305.698 1.305 1.304 0 .558-.303 1.35-1.305 1.35h-.303c-.396 0-.583-.233-.583-.536v-1.582zm0 5.445c0-.302.187-.535.583-.535h.419c1.12 0 1.444.744 1.444 1.42 0 .605-.326 1.465-1.444 1.465h-.419c-.396 0-.583-.232-.583-.535V34.74zM67.278 40.698c1.491 0 2.307-1.117 2.307-2.513v-2.467c0-.302.14-.442.372-.442.28 0 .373.163.42.442.21 1.187.768 2.792 1.397 3.608.793 1.047 1.538 1.373 2.284 1.373 1.212 0 2.26-.954 2.26-2.141 0-.792-.326-1.374-.745-1.908-.792-1-1.281-1.652-1.584-2.466-.07-.186-.024-.35.186-.512.723-.558 1.562-1.792 1.562-3.746 0-2.955-2.447-4.631-5.407-4.631h-2.633c-1.841 0-2.727 1.07-2.727 2.513v10.38c0 1.394.816 2.51 2.308 2.51zm2.05-11.005c0-.303.187-.536.583-.536h.327c.979 0 1.281.698 1.281 1.303 0 .582-.302 1.35-1.281 1.35h-.327c-.396 0-.583-.232-.583-.535v-1.582zM28.965 42.047c-2.61 0-4.032 1.954-4.032 4.398V60.22c0 2.443 1.422 4.398 4.032 4.398 2.61 0 4.032-1.955 4.032-4.398V46.445c0-2.443-1.421-4.398-4.032-4.398zM70.4 51.007h-1.142c-2.05 0-3.635.954-3.635 3.048 0 1.908 1.725 2.816 3.006 2.816.63 0 1.072.186 1.072.674 0 .605-.745 1-1.538 1-2.634 0-4.428-1.792-4.428-5.12 0-3.699 2.447-5.049 4.334-5.049 2.307 0 2.68 1.164 4.288 1.164a3.09 3.09 0 0 0 3.123-3.048c0-1.14-.513-2.024-1.328-2.63-1.422-1.047-3.566-1.815-6.596-1.815-5.43 0-10.72 3.42-10.72 11.379 0 7.609 5.29 11.169 10.51 11.169 5.476 0 8.949-3.374 8.949-8.307.001-3.117-1.956-5.28-5.895-5.28zM61.592 40.582c1.305 0 2.33-.768 2.33-2.164 0-1.374-1.025-2.142-2.33-2.142h-2.098c-.396 0-.582-.232-.582-.535v-.442c0-.302.186-.536.582-.536h1.609c1.119 0 2.004-.674 2.004-1.862 0-1.186-.885-1.861-2.004-1.861h-1.609c-.396 0-.582-.232-.582-.536v-.372c0-.302.186-.536.582-.536h2.098c1.305 0 2.33-.768 2.33-2.164 0-1.373-1.025-2.141-2.33-2.141h-4.405c-1.84 0-2.726 1.07-2.726 2.514v10.26c0 1.443.886 2.514 2.726 2.514h4.405v.003zM21.554 40.699c3.776 0 5.78-2.258 5.78-5.096v-7.841c0-1.396-.815-2.514-2.307-2.514s-2.307 1.118-2.307 2.514v7.585c0 .558-.326 1.21-1.166 1.21-.839 0-1.119-.652-1.119-1.21v-7.585c0-1.396-.839-2.514-2.33-2.514-1.493 0-2.308 1.118-2.308 2.514v7.841c.001 2.84 1.982 5.096 5.757 5.096zM37.915 40.697c1.212 0 2.26-.954 2.26-2.141 0-.792-.326-1.373-.745-1.908-.675-.884-1.281-1.652-1.584-2.466-.07-.186-.024-.35.186-.512.723-.558 1.562-1.792 1.562-3.746 0-2.955-2.447-4.631-5.407-4.631h-2.635c-1.84 0-2.726 1.07-2.726 2.514v10.378c0 1.396.816 2.514 2.307 2.514 1.492 0 2.308-1.118 2.308-2.514V35.72c0-.302.14-.442.372-.442.28 0 .373.162.42.442.21 1.186.768 2.792 1.397 3.607.793 1.045 1.538 1.371 2.285 1.371zm-3.823-8.889h-.326c-.397 0-.583-.232-.583-.535v-1.581c0-.302.186-.536.583-.536h.326c.98 0 1.282.698 1.282 1.304 0 .58-.303 1.348-1.282 1.348zM51.314 42.047c-2.401 0-3.705 1.792-3.705 4.05v5.025c0 .418-.14.605-.397.605-.186 0-.326-.116-.489-.441l-3.239-6.284c-1.235-2.397-2.517-2.955-3.985-2.955-2.447 0-3.799 1.838-3.799 4.142V60.57c0 2.258 1.306 4.05 3.705 4.05 2.401 0 3.706-1.792 3.706-4.05v-5.025c0-.419.14-.606.396-.606.186 0 .326.116.489.442l3.239 6.283c1.235 2.397 2.563 2.956 3.985 2.956 2.447 0 3.8-1.838 3.8-4.142V46.096c0-2.257-1.305-4.05-3.706-4.05zM73.015 78.02c0-.626.485-1.149 1.15-1.149.666 0 1.15.523 1.15 1.149 0 .672-.484 1.156-1.15 1.156-.665.001-1.15-.492-1.15-1.156zm2.05 0a.892.892 0 0 0-.9-.914c-.446 0-.9.336-.9.914 0 .602.454.921.9.921.447 0 .9-.32.9-.921zm-1.299.493v-.976c0-.063.055-.125.118-.125h.329c.258 0 .438.156.438.367 0 .18-.102.336-.337.374l.258.29a.124.124 0 0 1 .038.078c0 .07-.047.117-.117.117a.12.12 0 0 1-.101-.055l-.344-.406h-.039v.336c0 .063-.055.117-.125.117a.121.121 0 0 1-.118-.117zm.416-.556c.14 0 .218-.07.218-.163 0-.101-.07-.156-.195-.156h-.195v.32h.172z" fill="#D62300"/>
</svg>
