<svg width="25" height="25" viewBox="0 0 25 25" fill="none" xmlns="http://www.w3.org/2000/svg">
    <path d="M20.358 2c-.655 0-5.239 1.313-5.239 7.219v4.594a2.625 2.625 0 0 0 2.62 2.624h1.31v5.25a1.31 1.31 0 1 0 2.619 0V3.313A1.31 1.31 0 0 0 20.358 2zm-14.407.656a.653.653 0 0 0-1.293-.143l-1.24 5.59a3.61 3.61 0 0 0 3.188 4.38v9.204a1.31 1.31 0 1 0 2.62 0v-9.203a3.61 3.61 0 0 0 3.188-4.38l-1.24-5.591a.655.655 0 0 0-1.293.143v5.505a.402.402 0 0 1-.803.032L8.567 2.6a.652.652 0 0 0-1.302 0l-.507 5.594a.402.402 0 0 1-.802-.033V2.657H5.95zm1.977 6.235h-.024l.012-.03.012.03z" fill="#502314"/>
</svg>
