<svg width="22" height="19" viewBox="0 0 22 19" fill="none" xmlns="http://www.w3.org/2000/svg">
    <mask id="uhwq76slwa" style="mask-type:alpha" maskUnits="userSpaceOnUse" x="0" y="0" width="22" height="19">
        <path fill="#C4C4C4" d="M0 0h22v19H0z"/>
    </mask>
    <g mask="url(#uhwq76slwa)" fill-rule="evenodd" clip-rule="evenodd" fill="#F5EBDC">
        <path d="M1.565 1a.346.346 0 0 0-.238.094.332.332 0 0 0-.104.23v4.585a.33.33 0 0 0 .108.233.344.344 0 0 0 .246.09h6.111a.349.349 0 0 0 .246-.09.335.335 0 0 0 .109-.233V1.323a.332.332 0 0 0-.105-.23A.346.346 0 0 0 7.7 1H5.158v.994a.224.224 0 0 1-.09.159.234.234 0 0 1-.179.044h-.537a.235.235 0 0 1-.157-.058.226.226 0 0 1-.076-.145V1H1.565zM4.987 13.21c-.483 0-.956.141-1.358.404a2.406 2.406 0 0 0-.9 1.075 2.35 2.35 0 0 0-.14 1.384c.095.464.328.89.67 1.225a2.46 2.46 0 0 0 1.252.656c.474.092.965.045 1.412-.137a2.434 2.434 0 0 0 1.097-.881 2.36 2.36 0 0 0-.304-3.024 2.47 2.47 0 0 0-1.729-.701zm0 3.353a1.005 1.005 0 0 1-.554-.158.975.975 0 0 1-.37-.435.951.951 0 0 1 .212-1.062A1.008 1.008 0 0 1 5.36 14.7a.986.986 0 0 1 .443.362c.108.161.165.35.162.543a.948.948 0 0 1-.286.678.988.988 0 0 1-.692.28zM19.556 13.21c-.484 0-.956.141-1.358.404a2.406 2.406 0 0 0-.9 1.075 2.35 2.35 0 0 0-.14 1.384c.095.464.327.89.67 1.225a2.46 2.46 0 0 0 1.25.656c.475.092.966.045 1.413-.137a2.434 2.434 0 0 0 1.097-.881 2.36 2.36 0 0 0-.304-3.024 2.47 2.47 0 0 0-1.728-.701zm0 3.353a1.005 1.005 0 0 1-.555-.158.975.975 0 0 1-.37-.435.95.95 0 0 1 .213-1.062 1.008 1.008 0 0 1 1.085-.208.985.985 0 0 1 .443.362c.108.161.164.35.162.543a.948.948 0 0 1-.287.678.988.988 0 0 1-.691.28z"/>
        <path d="M3.777 10.577a5.032 5.032 0 0 0-2.729 1.759A4.856 4.856 0 0 0 0 15.366a.73.73 0 0 0 .367.647.77.77 0 0 0 .758 0 .726.726 0 0 0 .274-.274.706.706 0 0 0 .092-.373c0-.454.092-.904.27-1.324.177-.42.437-.801.765-1.122a3.537 3.537 0 0 1 1.146-.75 3.596 3.596 0 0 1 2.703 0c.429.173.818.428 1.146.75.328.32.588.702.766 1.122.177.42.269.87.269 1.324a.717.717 0 0 0 .218.517.747.747 0 0 0 .527.213h5.793a.76.76 0 0 0 .56-.196.732.732 0 0 0 .235-.534c0-.919.372-1.8 1.034-2.45a3.582 3.582 0 0 1 2.498-1.022c.348-.007.695.042 1.027.144.464.132.745.084.978-.3a1.01 1.01 0 0 0-.11-.861 29.819 29.819 0 0 0-5.293-7.83.741.741 0 0 0-.293-.252.945.945 0 0 0-.33-.071h-2.664a.759.759 0 0 0-.528.214.73.73 0 0 0-.218.516.717.717 0 0 0 .218.516.746.746 0 0 0 .528.214h1.833a17.676 17.676 0 0 1 1.992 7.076 5.174 5.174 0 0 0-1.418 1.436h-5.06V9.883h1.003a.754.754 0 0 0 .527-.214.723.723 0 0 0 .218-.516v-.54a.723.723 0 0 0-.218-.516.754.754 0 0 0-.527-.213h-9.13a.747.747 0 0 0-.538.215c-.13.14-.2.325-.196.515v.527a.794.794 0 0 0 .22.526.803.803 0 0 0 .538.216h1.797v.694z"/>
    </g>
</svg>
