<svg width="25" height="25" viewBox="0 0 25 25" fill="none" xmlns="http://www.w3.org/2000/svg">
    <path fill-rule="evenodd" clip-rule="evenodd" d="M12.125 2.073a1 1 0 0 1 .75 0l8.5 3.435a1 1 0 0 1 .625.928v5.085c0 5.257-3.946 10.177-9.283 11.469a.923.923 0 0 1-.434 0C6.946 21.698 3 16.778 3 11.52V6.437a1 1 0 0 1 .625-.928l8.5-3.435zm.28 5.608h.19a.96.96 0 1 1 0 1.92h-.19a.96.96 0 1 1 0-1.92zm.04 3.84h.11a1 1 0 0 1 1 1v3.76a1 1 0 0 1-1 1h-.11a1 1 0 0 1-1-1v-3.76a1 1 0 0 1 1-1z" fill="#502314"/>
</svg>
