<svg width="25" height="25" viewBox="0 0 25 25" fill="none" xmlns="http://www.w3.org/2000/svg">
    <path d="M11.684 1.246a1.474 1.474 0 0 1 1.63 0l.797.525c.27.176.583.261.9.243l.955-.058a1.478 1.478 0 0 1 1.41.817l.43.858c.143.288.376.517.659.66l.864.436c.528.265.85.822.815 1.415l-.058.957c-.018.319.067.638.242.903l.528.8c.327.493.327 1.14 0 1.634l-.529.804c-.174.27-.26.584-.241.903l.058.957a1.484 1.484 0 0 1-.815 1.415l-.855.431a1.487 1.487 0 0 0-.659.66l-.434.867c-.265.53-.82.854-1.411.818l-.954-.058a1.482 1.482 0 0 0-.9.242l-.797.53a1.474 1.474 0 0 1-1.63 0l-.802-.53a1.49 1.49 0 0 0-.9-.242l-.954.058a1.478 1.478 0 0 1-1.41-.818l-.43-.857a1.488 1.488 0 0 0-.659-.66l-.864-.436a1.484 1.484 0 0 1-.815-1.415l.058-.957a1.494 1.494 0 0 0-.242-.903l-.524-.804a1.485 1.485 0 0 1 0-1.635l.524-.8c.175-.27.26-.584.242-.903l-.058-.956a1.484 1.484 0 0 1 .815-1.415l.855-.432c.287-.148.52-.381.663-.669l.43-.858c.264-.53.82-.853 1.41-.817l.954.058c.318.018.636-.067.9-.243l.802-.525zm4.398 8.377c0-.953-.378-1.867-1.05-2.54a3.577 3.577 0 0 0-5.066 0 3.599 3.599 0 0 0 0 5.081 3.577 3.577 0 0 0 5.067 0 3.599 3.599 0 0 0 1.049-2.54zM3.959 20.844l1.93-4.604a.035.035 0 0 1 .018.018l.43.858a2.92 2.92 0 0 0 2.777 1.608l.954-.058c.008 0 .022 0 .03.008l.798.53c.228.149.47.265.721.346l-1.684 4.012a.708.708 0 0 1-.595.435.71.71 0 0 1-.663-.323l-1.442-2.215-2.513.373a.717.717 0 0 1-.766-.988h.005zm11.106 2.713-1.683-4.007c.25-.08.492-.193.72-.346l.798-.53c.009-.004.018-.008.031-.008l.954.058a2.92 2.92 0 0 0 2.777-1.608l.43-.858a.034.034 0 0 1 .017-.018l1.935 4.604a.73.73 0 0 1-.094.719.706.706 0 0 1-.672.27l-2.512-.374-1.442 2.21a.71.71 0 0 1-.663.324.717.717 0 0 1-.596-.436z" fill="#502314"/>
</svg>
