<svg width="20" height="19" viewBox="0 0 20 19" fill="none" xmlns="http://www.w3.org/2000/svg">
    <mask id="sxm3a5bf9a" style="mask-type:alpha" maskUnits="userSpaceOnUse" x="0" y="0" width="20" height="19">
        <path fill="#C4C4C4" d="M.5 0h19v19H.5z"/>
    </mask>
    <g mask="url(#sxm3a5bf9a)" fill="#F5EBDC">
        <path d="M19.42 2.054c0-.405-.316-.973-.79-.973h-.08c-.632 0-1.345.081-1.977.081h-2.928c-1.503 0-3.006 0-4.43-.08C7.868 1.081 6.444 1 5.1 1H1.935C.907 1 .432 1.162.511 2.378.511 3.027.353 4 1.223 4 7 4 12.853 3.919 18.63 3.838c.395 0 .87-.325.87-.811 0-.324 0-.649-.08-.973zM18.551 5.216l-8.386.08-8.704.082c0 1.865-.158 4.297-.079 6.08.08.892-.079 1.703 0 2.514.08.73 0 1.864.08 2.594.078 1.054.79 1.297 1.344 1.297 4.273 0 7.28.244 11.077.081.87 0 1.74-.08 2.532-.162.633-.08 1.82.081 2.136-.73.08-.243.08-.486.08-.73V10c0-1.54 0-3.162-.08-4.783zm-8.466 7.702H8.978v-1.135h.87c.08 0 .158-.162.158-.324v-.325c0-.162-.079-.324-.158-.324H8.345c-.238 0-.475-.081-.633-.081h-.554c-.158 0-.237.08-.237.486 0 .244 0 .568.079.568h.87v.567c0 .162-.08.325-.08.487v.08c-.711 0-1.502.082-2.214.082 0-.405 0-.81-.08-1.297h.87c.08 0 .159-.162.159-.325v-.324c0-.162-.08-.324-.158-.324H4.863c-.237 0-.474-.081-.632-.081h-.554v.648c0 .244 0 .568.079.568h.87v.567c0 .163-.079.325-.079.487v.243h-.633c-.712 0-.791-1.378-.791-2.675 0-.568-.08-1.217-.08-1.865 0-.568.08-.973.555-1.216.553-.243 3.56-.081 4.114-.081.791-.081 1.345 0 1.978 0 .316 0 .633.243.633.567-.08 1.54 0 3.081.079 4.621.158.244-.08.406-.317.406zm6.172 3.324c-.317.162-.633.162-.87.162-.475.081-2.453.243-2.849 0-.396-.162-.316-1.216-.316-2.027 0-2.189 0-4.459-.08-6.648 0-.162.08-.324.159-.324.474-.081 1.028-.081 1.503-.162.475-.081 1.82-.244 2.057-.162.791.162.791.567.712 1.54v4.459c.08.892.159 2.919-.316 3.162z"/>
    </g>
</svg>
