<svg width="25" height="25" viewBox="0 0 25 25" fill="none" xmlns="http://www.w3.org/2000/svg">
    <mask id="zxqncilera" style="mask-type:alpha" maskUnits="userSpaceOnUse" x="2" y="2" width="21" height="21">
        <path fill="#C4C4C4" d="M2 2h21v21H2z"/>
    </mask>
    <g mask="url(#zxqncilera)" fill="#502314">
        <path d="M22.913 4.27c0-.448-.35-1.075-.875-1.075h-.087c-.7 0-1.487.09-2.187.09H16.53c-1.662 0-3.323 0-4.897-.09-1.487 0-3.061-.09-4.548-.09H3.587c-1.137 0-1.662.18-1.575 1.524 0 .717-.174 1.792.787 1.792 6.384 0 12.855-.09 19.24-.18.436 0 .961-.358.961-.895 0-.359 0-.717-.087-1.076zM21.95 7.765l-9.269.09-9.62.089c0 2.06-.174 4.749-.087 6.72.088.986-.087 1.882 0 2.778.088.807 0 2.061.088 2.868.087 1.165.874 1.433 1.487 1.433 4.722 0 8.045.27 12.242.09.962 0 1.924-.09 2.799-.18.7-.089 2.01.09 2.36-.806.088-.269.088-.537.088-.806v-6.99c0-1.702 0-3.494-.087-5.286zm-9.356 8.512H11.37v-1.254h.961c.088 0 .175-.18.175-.359v-.358c0-.18-.087-.358-.175-.358H10.67c-.262 0-.525-.09-.7-.09h-.612c-.175 0-.262.09-.262.538 0 .268 0 .627.087.627h.962v.627c0 .18-.087.359-.087.538v.09c-.787 0-1.662.089-2.449.089 0-.448 0-.896-.087-1.434h.962c.087 0 .175-.179.175-.358v-.359c0-.179-.088-.358-.175-.358H6.822c-.262 0-.525-.09-.7-.09H5.51v.717c0 .269 0 .627.088.627h.962v.628c0 .179-.088.358-.088.537v.27h-.7c-.786 0-.874-1.524-.874-2.958 0-.627-.087-1.344-.087-2.06 0-.628.087-1.076.612-1.345.612-.269 3.935-.09 4.547-.09.875-.09 1.487 0 2.186 0 .35 0 .7.27.7.628-.087 1.702 0 3.405.088 5.107.174.27-.088.448-.35.448zm6.82 3.674c-.35.18-.699.18-.961.18-.525.09-2.711.268-3.148 0-.438-.18-.35-1.345-.35-2.24 0-2.42 0-4.93-.088-7.348 0-.18.088-.359.175-.359.525-.09 1.137-.09 1.662-.18.524-.089 2.011-.268 2.273-.178.875.179.875.627.788 1.702v4.929c.087.985.174 3.225-.35 3.494z"/>
    </g>
</svg>
