<svg width="25" height="25" viewBox="0 0 25 25" fill="none" xmlns="http://www.w3.org/2000/svg">
    <path fill-rule="evenodd" clip-rule="evenodd" d="M11.65 2h8.287C20.524 2 21 2.47 21 3.05v18.9c0 .58-.476 1.05-1.063 1.05H5.063C4.476 23 4 22.53 4 21.95V3.05C4 2.47 4.476 2 5.063 2h.92v8.04a.3.3 0 0 0 .481.24l2.17-1.656a.3.3 0 0 1 .364 0l2.17 1.655a.3.3 0 0 0 .481-.238V2zM7.4 14.602c0-.512.38-.927.85-.927h5.313c.47 0 .85.415.85.927 0 .511-.38.926-.85.926H8.25c-.47 0-.85-.415-.85-.926zm.85 2.219c-.47 0-.85.415-.85.926 0 .512.38.927.85.927h8.5c.47 0 .85-.415.85-.927 0-.511-.38-.926-.85-.926h-8.5z" fill="#502314"/>
</svg>
