<svg width="30" height="30" viewBox="0 0 30 30" fill="none" xmlns="http://www.w3.org/2000/svg">
    <path d="M21.25 11.25h-10v-2.5c0-1 .375-1.875 1.125-2.625 1.5-1.5 3.875-1.5 5.25 0 .5.5.75 1.125 1 1.75.125.625.875 1 1.5.875s1.125-.875.875-1.5c-.25-1.125-.875-2.125-1.625-2.875C18.25 3.125 16.625 2.5 15 2.5c-3.5 0-6.25 2.75-6.25 6.25v2.5C6.625 11.25 5 12.875 5 15v8.75c0 2.125 1.625 3.75 3.75 3.75h12.5c2.125 0 3.75-1.625 3.75-3.75V15c0-2.125-1.625-3.75-3.75-3.75zm-4.875 8.125-.125.125v1.75c0 .75-.5 1.25-1.25 1.25s-1.25-.5-1.25-1.25V19.5c-.75-.75-.875-1.875-.125-2.625S15.5 16 16.25 16.75c.75.625.875 1.875.125 2.625z" fill="#502314"/>
</svg>
